# xmcd
#
# Track frame offsets: 
#        182
#        21425
#        42667
#        59825
#        80752
#        94937
#        116725
#        141627
#        168465
#
# Disc length: 2529 seconds
#
# Revision: 8
# Processed by: cddbd v1.5.2PL0 Copyright (c) Steve Scherf et al.
# Submitted via: ExactAudioCopy v1.0b3
#
DISCID=8f09df09
DTITLE=Francesco Guccini - live 1 Fra la via Emilia e il West
DYEAR=1984
DGENRE=Pop-Folk
TTITLE0=Canzone per un'amica
TTITLE1=Autogrill
TTITLE2=Il vecchio e il bambino
TTITLE3=Il pensionato
TTITLE4=L'isola non trovata
TTITLE5=Asia
TTITLE6=Canzone della bambina portoghese
TTITLE7=Canzone delle osterie di fuori porta
TTITLE8=Il frate
EXTD=YEAR: 1984 ID3G: 53
EXTT0=
EXTT1=
EXTT2=
EXTT3=
EXTT4=
EXTT5=
EXTT6=
EXTT7=
EXTT8=
PLAYORDER=
